<svg id="Layer_1" data-name="Layer 1" xmlns="http://www.w3.org/2000/svg" viewBox="0 0 290.61 80.87"><defs><style>.cls-1{fill:#1d1d1b;}.cls-2{fill:#e20613;}</style></defs><title>logo-desktop</title><path class="cls-1" d="M214.41,1.83a5.51,5.51,0,0,1,2.55.58l-.54,2.31A3,3,0,0,0,214.33,4a3.55,3.55,0,0,0-3.57,2.81c-.43,1.8.85,2.54,2.29,2.54a4.14,4.14,0,0,0,2.54-.81L215,10.89a7.2,7.2,0,0,1-2.83.58c-2.53,0-4.73-1.39-3.95-4.69A6.21,6.21,0,0,1,214.41,1.83Z" transform="translate(-5.39 -1.83)"/><path class="cls-1" d="M217.34,11.27l1.06-4.49h-1.85L217,4.94h5.94l-.43,1.84h-1.85l-1,4.49Z" transform="translate(-5.39 -1.83)"/><path class="cls-1" d="M228,4.74c2.13,0,2.66,1.73,2.27,3.36a4.1,4.1,0,0,1-3.85,3.37,2,2,0,0,1-1.72-.71l-.8,3.41h-2.25l2.17-9.23h2l-.2.85A3.12,3.12,0,0,1,228,4.74Zm-1,1.85a1.9,1.9,0,0,0-1.47.79l-.34,1.45a1.07,1.07,0,0,0,1.1.79,1.83,1.83,0,0,0,1.71-1.52C228.11,7.36,227.88,6.59,226.93,6.59Z" transform="translate(-5.39 -1.83)"/><path class="cls-1" d="M235.32,4.74c1.9,0,3.3,1.12,2.78,3.36a4.35,4.35,0,0,1-4.36,3.37c-1.9,0-3.3-1.12-2.77-3.37A4.34,4.34,0,0,1,235.32,4.74Zm-.46,2a1.6,1.6,0,0,0-1.58,1.38c-.17.72,0,1.39.93,1.39a1.6,1.6,0,0,0,1.57-1.39C236,7.39,235.78,6.72,234.86,6.72Z" transform="translate(-5.39 -1.83)"/><path class="cls-1" d="M238.38,11.27l1.49-6.33h2.24l-.7,3,3-3h2l-1.49,6.33h-2.24l.7-3-3,3Z" transform="translate(-5.39 -1.83)"/><path class="cls-1" d="M247.57,11.27l1.05-4.49h-1.85l.43-1.84h6l-.44,1.84h-1.85l-1.05,4.49Z" transform="translate(-5.39 -1.83)"/><path class="cls-1" d="M257,4.74c2.72,0,3.05,2.11,2.15,4H255c.09.7.88,1,1.79,1a5.59,5.59,0,0,0,1.89-.3l-.39,1.66a7.7,7.7,0,0,1-2.43.36c-2.09,0-3.48-1.19-3-3.37A4.27,4.27,0,0,1,257,4.74Zm-.32,1.62a1.43,1.43,0,0,0-1.39,1.07h2.12A.73.73,0,0,0,256.64,6.36Z" transform="translate(-5.39 -1.83)"/><path class="cls-1" d="M260.16,11.42a3.27,3.27,0,0,1-1.09-.21l.42-1.79a.73.73,0,0,0,.34.08c.95,0,1.56-2,2.27-4.56h5.42L266,11.27h-2.24l1.08-4.62h-1.12C263,9.29,262,11.42,260.16,11.42Z" transform="translate(-5.39 -1.83)"/><path class="cls-1" d="M267.37,11.27l1.49-6.33h2.24l-.43,1.84h1.22c1.71,0,2.38,1,2.08,2.25a3,3,0,0,1-3.14,2.24ZM270,9.75h.61A1,1,0,0,0,271.66,9c.1-.42-.13-.73-.74-.73h-.61Z" transform="translate(-5.39 -1.83)"/><path class="cls-1" d="M274.36,11.27l1.48-6.33h2.25l-.53,2.24h2l.53-2.24h2.24l-1.48,6.33h-2.25L279.11,9h-2l-.53,2.24Z" transform="translate(-5.39 -1.83)"/><path class="cls-1" d="M287,4.74c1.9,0,3.3,1.12,2.77,3.36a4.33,4.33,0,0,1-4.35,3.37c-1.9,0-3.3-1.12-2.78-3.37A4.35,4.35,0,0,1,287,4.74Zm-.47,2A1.62,1.62,0,0,0,284.9,8.1c-.16.72,0,1.39.93,1.39a1.6,1.6,0,0,0,1.58-1.39C287.58,7.39,287.41,6.72,286.48,6.72Z" transform="translate(-5.39 -1.83)"/><path class="cls-1" d="M296,7.17,295.57,9h-5L291,7.17Z" transform="translate(-5.39 -1.83)"/><path class="cls-1" d="M204.37,24.39l1.48-6.34h2.08L209,21l2.49-2.95h2.07l-1.49,6.34h-2.19l.75-3.17L209,23.16h-1l-.73-1.94-.74,3.17Z" transform="translate(-5.39 -1.83)"/><path class="cls-1" d="M218.23,17.85c1.9,0,3.3,1.12,2.77,3.37a4.34,4.34,0,0,1-4.35,3.36c-1.9,0-3.3-1.12-2.78-3.36A4.35,4.35,0,0,1,218.23,17.85Zm-.47,2a1.63,1.63,0,0,0-1.58,1.39c-.17.71,0,1.38.93,1.38a1.61,1.61,0,0,0,1.58-1.38C218.86,20.51,218.69,19.83,217.76,19.83Z" transform="translate(-5.39 -1.83)"/><path class="cls-1" d="M221.28,24.39l1.49-6.34H225l-.52,2.25h2l.53-2.25h2.24l-1.49,6.34h-2.24l.53-2.25h-2l-.52,2.25Z" transform="translate(-5.39 -1.83)"/><path class="cls-1" d="M230.47,24.39l1.05-4.49h-1.84l.43-1.85h5.94l-.43,1.85h-1.85l-1.06,4.49Z" transform="translate(-5.39 -1.83)"/><path class="cls-1" d="M242.1,23a.78.78,0,0,0,.26,0L242,24.32a3.66,3.66,0,0,1-1.19.2,1.3,1.3,0,0,1-1.34-.7,4.23,4.23,0,0,1-2.38.76c-1.22,0-2-.72-1.75-1.95.38-1.6,2-2.08,3.24-2.08a6.26,6.26,0,0,1,1.34.14l0-.22c.11-.45-.24-.8-1.13-.8a6.91,6.91,0,0,0-2.34.49l.44-1.88a9.51,9.51,0,0,1,2.57-.43c2,0,3.15.7,2.62,3l-.41,1.77C241.69,22.88,241.88,23,242.1,23Zm-3.74.1a2,2,0,0,0,1.12-.33l.2-.86a2.37,2.37,0,0,0-.78-.12c-.53,0-1.05.18-1.16.69C237.66,22.78,237.88,23.07,238.36,23.07Z" transform="translate(-5.39 -1.83)"/><path class="cls-1" d="M250.53,24.39l-.75-2.21h-.55l-.52,2.21h-2.24l.51-2.21h-.55l-1.79,2.21h-2.37L245,21.21l-1.13-3.16h2.37l.72,2.42h.41l.56-2.42h2.25l-.57,2.42H250l1.85-2.42h2.37l-2.61,3.16,1.26,3.18Z" transform="translate(-5.39 -1.83)"/><path class="cls-1" d="M253.58,24.39l1.49-6.34h2.24l-.53,2.25h2l.53-2.25h2.24l-1.48,6.34H257.8l.53-2.25h-2l-.53,2.25Z" transform="translate(-5.39 -1.83)"/><path class="cls-1" d="M261.39,24.39l1.49-6.34h2.24l-.43,1.85h1.21c1.72,0,2.38,1,2.09,2.24a3,3,0,0,1-3.14,2.25Zm2.6-1.52h.61a1,1,0,0,0,1.08-.73c.1-.42-.13-.72-.74-.72h-.61Zm4.4,1.52,1.49-6.34h2.24l-1.49,6.34Z" transform="translate(-5.39 -1.83)"/><path class="cls-1" d="M272,24.39l1.49-6.34h2.25l-.71,3,3-3h2l-1.49,6.34H276.2l.7-3-3,3Zm4.88-7a3.43,3.43,0,0,1-2-.51l.37-1.61a3.86,3.86,0,0,0,2,.46,5.09,5.09,0,0,0,2.22-.46l-.38,1.61A4.74,4.74,0,0,1,276.85,17.4Z" transform="translate(-5.39 -1.83)"/><path class="cls-1" d="M201.29,37.5l1.48-6.33h6.47l-1.48,6.33h-2.25L206.57,33h-2l-1.05,4.48Z" transform="translate(-5.39 -1.83)"/><path class="cls-1" d="M213.88,31c1.9,0,3.3,1.12,2.78,3.37a4.35,4.35,0,0,1-4.36,3.36c-1.9,0-3.3-1.12-2.77-3.36A4.33,4.33,0,0,1,213.88,31Zm-.46,2a1.6,1.6,0,0,0-1.58,1.39c-.17.71,0,1.38.93,1.38a1.6,1.6,0,0,0,1.57-1.38C214.51,33.62,214.34,33,213.42,33Z" transform="translate(-5.39 -1.83)"/><path class="cls-1" d="M221.48,31c2.72,0,3.05,2.11,2.14,4h-4.14c.08.7.88,1,1.79,1a5.59,5.59,0,0,0,1.89-.3l-.39,1.66a7.42,7.42,0,0,1-2.43.36c-2.09,0-3.49-1.19-3-3.36A4.29,4.29,0,0,1,221.48,31Zm-.33,1.62a1.41,1.41,0,0,0-1.38,1.07h2.12A.73.73,0,0,0,221.15,32.59Z" transform="translate(-5.39 -1.83)"/><path class="cls-1" d="M226.31,37.69a4.44,4.44,0,0,1-2.33-.54l.4-1.72a4.24,4.24,0,0,0,2,.55c.77,0,1.27-.15,1.37-.55s-.4-.46-1-.46h-1.05l.31-1.35h1.06c.59,0,1-.12,1.1-.46s-.14-.5-.86-.5a6.17,6.17,0,0,0-2.3.55l.4-1.71A6.42,6.42,0,0,1,228,31c2.4,0,2.74,1.09,2.55,1.91a1.91,1.91,0,0,1-1.34,1.37,1.13,1.13,0,0,1,.8,1.48C229.82,36.61,228.72,37.69,226.31,37.69Z" transform="translate(-5.39 -1.83)"/><path class="cls-1" d="M229.84,39.15l.77-3.3h.92a10.61,10.61,0,0,0,1.93-4.68h5.48l-1.1,4.68h1l-.77,3.3H236l.39-1.65h-4.1l-.38,1.65Zm4-3.3h1.77l.71-3h-1.18A9.1,9.1,0,0,1,233.82,35.85Z" transform="translate(-5.39 -1.83)"/><path class="cls-1" d="M81.7,45.13c9.11,0,12.58,5.1,11.38,10.11-.81,3.47-3.15,6.1-6.59,8.26,2.86,1.64,4.81,4.16,3.73,8.48-1.31,5.27-6.91,10.43-17.71,10.43S58.59,77.19,60,71.72c.89-3.58,4-7,7.83-9C65.73,61,64.53,58.66,65.44,55,66.63,50.23,71.91,45.13,81.7,45.13Zm-9.41,20a10,10,0,0,0-4.2,5.63c-.71,3,1.13,5.42,6.55,5.42,3.79,0,7.08-1.58,7.68-4,.77-3-1.93-4-5.16-5.26C75.73,66.35,74,65.82,72.29,65.14Zm7.55-13.8c-3.8,0-6.39,1.74-6.89,3.74-.78,3.16,2.18,4.16,5.42,5.32,1,.26,2,.63,3.08.94a10.78,10.78,0,0,0,3.9-5.52C86,53.34,84.26,51.34,79.84,51.34Z" transform="translate(-5.39 -1.83)"/><path class="cls-1" d="M72.51,82.7c-5.52,0-9.53-1.4-11.6-4a7.88,7.88,0,0,1-1.24-7c.87-3.48,3.76-6.89,7.6-9-2.22-2-2.91-4.52-2.12-7.7,1.26-5,6.86-10.13,16.55-10.13,6,0,8.91,2.11,10.31,3.89a7.59,7.59,0,0,1,1.36,6.58c-.75,3.22-2.82,5.9-6.32,8.19,3.26,2,4.39,4.83,3.46,8.56C89.23,77.2,83.83,82.7,72.51,82.7ZM81.7,45.42c-9.37,0-14.78,4.86-16,9.68-.77,3.09,0,5.51,2.25,7.39l.35.28-.4.2c-3.88,2-6.82,5.39-7.67,8.82a7.32,7.32,0,0,0,1.12,6.5c2,2.5,5.81,3.83,11.14,3.83,11,0,16.2-5.28,17.43-10.21.89-3.59-.28-6.26-3.59-8.15l-.43-.24.42-.27c3.6-2.26,5.71-4.91,6.46-8.08a7,7,0,0,0-1.25-6.09C89.68,46.72,86.19,45.42,81.7,45.42ZM74.64,76.49c-3,0-5.08-.7-6.17-2.08a4.22,4.22,0,0,1-.66-3.71,10.26,10.26,0,0,1,4.31-5.8l.13-.09.15.06c.87.35,1.77.67,2.64,1s1.54.54,2.23.82c3.18,1.19,6.16,2.3,5.34,5.6C82,74.75,78.71,76.49,74.64,76.49Zm-2.31-11a9.6,9.6,0,0,0-4,5.36,3.62,3.62,0,0,0,.55,3.22c1,1.21,2.94,1.85,5.71,1.85,3.74,0,6.85-1.59,7.4-3.78.7-2.79-1.8-3.72-5-4.91-.7-.28-1.45-.54-2.23-.82S73.17,65.81,72.33,65.47Zm9.18-3.8-.14,0L80,61.2c-.58-.19-1.14-.37-1.7-.52l-.18-.06c-3.23-1.16-6.28-2.25-5.44-5.61.58-2.34,3.53-4,7.17-4,2.5,0,4.32.63,5.26,1.83a3.38,3.38,0,0,1,.54,3,11,11,0,0,1-4,5.68Zm-1.67-10c-3.94,0-6.18,1.83-6.6,3.52-.71,2.85,2,3.81,5.07,4.91l.16.06c.54.14,1.11.33,1.7.52l1.21.38a10.45,10.45,0,0,0,3.69-5.27,2.85,2.85,0,0,0-.43-2.51C83.82,52.19,82.16,51.63,79.84,51.63Z" transform="translate(-5.39 -1.83)"/><path class="cls-1" d="M128.3,49c-2.16-2.77-5.67-4.18-10.42-4.18-10.36,0-18.31,7.05-21.25,18.87C95,70.07,95.57,75.2,98.17,78.52c2.17,2.78,5.67,4.18,10.42,4.18a22.18,22.18,0,0,0,12.34-3.48c5.73-3.92,7.38-8.16,9.2-15.45C131.72,57.39,130.9,52.34,128.3,49ZM121.38,63.7c-1.93,7.71-5.54,11.46-11.06,11.46-2.22,0-3.84-.62-4.8-1.86-1.4-1.79-1.54-5-.42-9.46,1.92-7.72,5.54-11.47,11.05-11.47,2.22,0,3.84.62,4.81,1.86C122.35,56,122.5,59.2,121.38,63.7Z" transform="translate(-5.39 -1.83)"/><path class="cls-2" d="M198.74,12.79l-7.19,25.42h-8.36l5-17.48A11,11,0,0,1,198.74,12.79Z" transform="translate(-5.39 -1.83)"/><path class="cls-1" d="M158.85,68.27l5.81-23h-8.34l-23.18,23-2.2,7.14h18L147.3,82h8.13l1.63-6.54h20.09a6.38,6.38,0,0,0,6.18-4.82l.58-2.34Zm-8.14,0h-7l9.31-9.43Z" transform="translate(-5.39 -1.83)"/><path class="cls-2" d="M168.17,64.44l-.1.44h30a6.72,6.72,0,0,0,6.67-4.83l.84-3h-28.2A9.43,9.43,0,0,0,168.17,64.44Z" transform="translate(-5.39 -1.83)"/><path class="cls-2" d="M173,52.79l-.09.44h69.61a6.72,6.72,0,0,0,6.67-4.83l.84-3H182.25A9.44,9.44,0,0,0,173,52.79Z" transform="translate(-5.39 -1.83)"/><path class="cls-2" d="M146.1,23.84,142,38.21h8.35l6.32-22.32A11,11,0,0,0,146.1,23.84Z" transform="translate(-5.39 -1.83)"/><path class="cls-2" d="M163.12,20.73l-5,17.48h8.35l7.2-25.42A11,11,0,0,0,163.12,20.73Z" transform="translate(-5.39 -1.83)"/><path class="cls-2" d="M157.22,2.33s0,0,0,0h-.11a23.73,23.73,0,0,0-17.26,7.44L127.72,22.63,120.42,2.3h-.11a11,11,0,0,0-10.58,7.94L105,27.2a4,4,0,0,1-3.89,2.93L79.6,30.06,84.29,13.4a4.16,4.16,0,0,1,4-3l8.14.06a6.85,6.85,0,0,0,6.64-5l.84-3L87.4,2.3h-1l0,.08a11,11,0,0,0-9.56,7.86L69,38.21h8.36l0-.1,26.21.08a8.76,8.76,0,0,0,8.46-6.4L116.46,16l8.71,21.07,20.18-21.57a16.33,16.33,0,0,1,11.9-5.19l36.94-.08a6.74,6.74,0,0,0,6.67-4.84l.84-3Z" transform="translate(-5.39 -1.83)"/><path class="cls-2" d="M24.37,22.82A6.72,6.72,0,0,0,31,27.65H59.37a9.31,9.31,0,0,0,9-6.78l.3-1.07H23.53Z" transform="translate(-5.39 -1.83)"/><path class="cls-2" d="M71.53,9.1l.25-.94H5.39l.84,3A6.75,6.75,0,0,0,12.9,16H62.54A9.3,9.3,0,0,0,71.53,9.1Z" transform="translate(-5.39 -1.83)"/><path class="cls-1" d="M65.41,31H40.91l.58,2.34a6.37,6.37,0,0,0,6.18,4.83h8.68a9.31,9.31,0,0,0,9-6.9Z" transform="translate(-5.39 -1.83)"/></svg>