<svg id="Layer_1" data-name="Layer 1" xmlns="http://www.w3.org/2000/svg" viewBox="0 0 247.19 81.23"><defs><style>.cls-1{fill:#1d1d1b;}.cls-2{fill:#e20613;}</style></defs><title>logo-mobile</title><path class="cls-1" d="M103.49,44.74c9.2,0,12.7,5.16,11.5,10.21-.83,3.52-3.19,6.17-6.66,8.36,2.89,1.65,4.86,4.2,3.77,8.56-1.33,5.32-7,10.54-17.89,10.54S80.14,77.14,81.52,71.6c.91-3.61,4-7.07,7.91-9.09-2.08-1.71-3.29-4.1-2.37-7.77C88.26,49.9,93.59,44.74,103.49,44.74ZM94,65a10,10,0,0,0-4.24,5.69c-.72,3.08,1.14,5.48,6.62,5.48,3.83,0,7.15-1.6,7.76-4,.77-3.08-2-4.09-5.22-5.31C97.45,66.18,95.67,65.65,94,65ZM101.6,51c-3.83,0-6.45,1.75-6.95,3.77-.8,3.19,2.2,4.21,5.47,5.38,1,.26,2,.63,3.11.95a10.85,10.85,0,0,0,4-5.58C107.8,53,106.07,51,101.6,51Z" transform="translate(-26.39 -1.47)"/><path class="cls-1" d="M94.21,82.7c-5.58,0-9.63-1.41-11.73-4.09a8,8,0,0,1-1.24-7.08c.87-3.51,3.79-7,7.67-9.08-2.24-2-2.94-4.56-2.14-7.78C88,49.58,93.7,44.44,103.49,44.44c6.05,0,9,2.14,10.41,3.93A7.63,7.63,0,0,1,115.28,55c-.76,3.25-2.85,6-6.39,8.28,3.29,2,4.44,4.87,3.5,8.64C111.09,77.14,105.64,82.7,94.21,82.7ZM103.49,45C94,45,88.56,50,87.34,54.81c-.78,3.13,0,5.57,2.28,7.47l.35.28-.4.21c-3.92,2-6.89,5.44-7.76,8.91A7.38,7.38,0,0,0,83,78.24c2,2.53,5.87,3.87,11.26,3.87,11.08,0,16.36-5.33,17.6-10.31.91-3.63-.28-6.32-3.63-8.24l-.43-.24.42-.27c3.64-2.28,5.78-5,6.53-8.17a7,7,0,0,0-1.26-6.14C111.55,46.35,108,45,103.49,45ZM96.36,76.42c-3,0-5.14-.7-6.24-2.09a4.28,4.28,0,0,1-.67-3.75,10.45,10.45,0,0,1,4.36-5.87l.13-.09.15.06c.88.36,1.79.68,2.67,1s1.56.54,2.25.82c3.21,1.2,6.23,2.33,5.4,5.67C103.78,74.67,100.47,76.42,96.36,76.42ZM94,65.29a9.75,9.75,0,0,0-4,5.42A3.69,3.69,0,0,0,90.58,74c1,1.22,3,1.87,5.78,1.87,3.78,0,6.92-1.6,7.47-3.82.7-2.82-1.82-3.76-5-5-.71-.28-1.46-.55-2.25-.82S94.87,65.63,94,65.29Zm9.28-3.84-.15,0L101.76,61c-.58-.19-1.15-.38-1.72-.53l-.18-.06c-3.26-1.17-6.35-2.27-5.5-5.67.59-2.36,3.57-4,7.24-4,2.54,0,4.38.64,5.32,1.85a3.41,3.41,0,0,1,.55,3,11.1,11.1,0,0,1-4,5.74Zm-1.7-10.14c-4,0-6.24,1.84-6.66,3.56-.72,2.87,2,3.84,5.12,5l.16.06c.55.14,1.13.33,1.72.52l1.23.38a10.62,10.62,0,0,0,3.72-5.31,2.87,2.87,0,0,0-.44-2.55C105.63,51.87,104,51.31,101.6,51.31Z" transform="translate(-26.39 -1.47)"/><path class="cls-1" d="M150.57,48.66c-2.19-2.8-5.73-4.22-10.52-4.22-10.48,0-18.5,7.13-21.48,19.06-1.61,6.44-1.07,11.62,1.56,15,2.19,2.8,5.73,4.22,10.53,4.22a22.39,22.39,0,0,0,12.46-3.52c5.79-4,7.46-8.24,9.3-15.61C154,57.13,153.2,52,150.57,48.66Zm-7,14.84c-1.94,7.8-5.59,11.59-11.16,11.59-2.25,0-3.88-.64-4.86-1.88-1.41-1.81-1.55-5-.42-9.57,1.94-7.79,5.59-11.58,11.17-11.58,2.24,0,3.87.63,4.85,1.88C144.56,55.75,144.7,59,143.57,63.5Z" transform="translate(-26.39 -1.47)"/><path class="cls-2" d="M221.74,12.07l-7.27,25.68H206l5-17.66A11.13,11.13,0,0,1,221.74,12.07Z" transform="translate(-26.39 -1.47)"/><path class="cls-1" d="M181.43,68.12l5.87-23.2h-8.42L155.46,68.14l-2.22,7.22h18.17L169.76,82H178l1.65-6.6h20.29a6.42,6.42,0,0,0,6.24-4.87l.59-2.37Zm-8.22,0h-7l9.41-9.52Z" transform="translate(-26.39 -1.47)"/><path class="cls-2" d="M190.85,64.25l-.1.45h30.32a6.81,6.81,0,0,0,6.73-4.88l.85-3H200.16A9.53,9.53,0,0,0,190.85,64.25Z" transform="translate(-26.39 -1.47)"/><path class="cls-2" d="M195.76,52.48l-.1.45H266a6.8,6.8,0,0,0,6.73-4.88l.85-3h-68.5A9.53,9.53,0,0,0,195.76,52.48Z" transform="translate(-26.39 -1.47)"/><path class="cls-2" d="M168.55,23.23l-4.13,14.52h8.44l6.38-22.55A11.13,11.13,0,0,0,168.55,23.23Z" transform="translate(-26.39 -1.47)"/><path class="cls-2" d="M185.75,20.09l-5,17.66h8.45l7.27-25.68A11.13,11.13,0,0,0,185.75,20.09Z" transform="translate(-26.39 -1.47)"/><path class="cls-2" d="M179.78,1.5s0,0,0,0h-.1A24,24,0,0,0,162.26,9L150,22,142.61,1.47h-.12a11.12,11.12,0,0,0-10.68,8L127,26.63a4.06,4.06,0,0,1-3.93,3l-21.69-.07,4.73-16.84a4.2,4.2,0,0,1,4.07-3.06l8.22.05a6.93,6.93,0,0,0,6.71-5.06l.85-3-16.7-.1h-1l0,.08a11.11,11.11,0,0,0-9.67,7.94L90.62,37.75h8.44l0-.1,26.48.08a8.85,8.85,0,0,0,8.55-6.46l4.48-15.95,8.81,21.29L167.8,14.82a16.47,16.47,0,0,1,12-5.25l37.32-.08a6.82,6.82,0,0,0,6.74-4.88l.84-3Z" transform="translate(-26.39 -1.47)"/><path class="cls-2" d="M45.57,22.2a6.78,6.78,0,0,0,6.73,4.88H80.93a9.39,9.39,0,0,0,9-6.85l.31-1.08H44.72Z" transform="translate(-26.39 -1.47)"/><path class="cls-2" d="M93.21,8.34l.26-1-67.08,0,.85,3A6.81,6.81,0,0,0,34,15.33H84.13A9.39,9.39,0,0,0,93.21,8.34Z" transform="translate(-26.39 -1.47)"/><path class="cls-1" d="M87,30.51H62.28l.59,2.36a6.42,6.42,0,0,0,6.24,4.88h8.76a9.41,9.41,0,0,0,9.09-7Z" transform="translate(-26.39 -1.47)"/></svg>